<?xml version="1.0" standalone="no"?>
<!DOCTYPE svg PUBLIC "-//W3C//DTD SVG 20010904//EN"
 "http://www.w3.org/TR/2001/REC-SVG-20010904/DTD/svg10.dtd">
<svg version="1.0" xmlns="http://www.w3.org/2000/svg"
 width="1080.000000pt" height="1080.000000pt" viewBox="0 0 1080.000000 1080.000000"
 preserveAspectRatio="xMidYMid meet">
<metadata>
Created by potrace 1.11, written by Peter Selinger 2001-2013
</metadata>
<g transform="translate(0.000000,1080.000000) scale(0.100000,-0.100000)"
fill="#000000" stroke="none">
<path d="M6897 9424 c-1 -1 -38 -4 -83 -8 -77 -6 -239 -30 -276 -42 -10 -3
-30 -8 -45 -10 -15 -3 -88 -26 -163 -50 -580 -194 -1053 -639 -1281 -1205 -52
-129 -97 -277 -115 -379 -33 -184 -38 -239 -38 -420 0 -181 6 -245 35 -395 57
-287 157 -527 342 -815 107 -166 130 -207 118 -215 -9 -5 -131 75 -626 410
-298 201 -743 501 -1045 703 -157 105 -289 195 -295 199 -5 5 -181 124 -390
264 -209 141 -513 345 -675 454 -162 110 -380 257 -485 327 -104 70 -195 132
-202 138 -15 12 -33 13 -33 1 0 -5 -24 -60 -54 -123 -29 -62 -63 -135 -76
-163 -12 -27 -36 -79 -52 -115 -33 -70 -76 -184 -113 -295 -48 -141 -100 -353
-121 -485 -23 -148 -23 -153 -40 -350 -13 -158 -3 -463 22 -645 2 -16 6 -48 9
-69 3 -21 7 -42 9 -45 2 -3 7 -30 11 -60 10 -82 79 -341 125 -476 72 -208 177
-437 272 -593 21 -34 38 -65 38 -68 0 -2 5 -10 10 -17 6 -7 30 -42 53 -78 159
-242 412 -526 620 -698 42 -35 77 -66 77 -70 0 -5 -1026 -654 -1195 -756 -47
-28 -346 -216 -369 -231 -17 -12 1 -33 225 -256 134 -134 258 -255 274 -268
17 -14 68 -57 115 -96 614 -513 1394 -863 2205 -989 43 -7 101 -14 170 -21 33
-3 71 -8 85 -10 155 -26 687 -22 930 7 47 5 102 12 124 14 144 18 418 74 591
122 182 50 427 135 570 197 315 137 572 281 855 477 111 76 342 263 439 353
672 627 1123 1374 1343 2226 22 85 42 166 44 180 2 14 9 45 14 70 5 25 12 59
15 75 3 17 9 55 14 85 10 54 13 78 26 190 4 30 8 65 10 78 25 164 25 782 1
922 -3 14 -7 50 -10 80 -9 97 -26 200 -62 380 -20 96 -38 186 -40 199 -5 23
-3 23 33 16 77 -15 247 -12 339 6 572 109 910 699 719 1253 -34 98 -141 286
-162 286 -4 0 -23 -11 -42 -24 -116 -77 -705 -446 -714 -446 -5 0 -30 38 -120
184 -66 107 -174 264 -217 316 -198 240 -451 439 -725 569 -134 64 -339 134
-460 157 -22 5 -42 9 -45 9 -42 11 -121 23 -196 31 -61 6 -311 13 -317 8z
m293 -629 c127 -15 301 -67 430 -127 215 -99 412 -257 549 -438 79 -105 277
-423 265 -427 -5 -2 -79 -48 -164 -103 -85 -54 -303 -192 -485 -306 -181 -114
-359 -226 -395 -249 -36 -23 -110 -69 -165 -104 -55 -34 -197 -123 -315 -197
-118 -75 -316 -199 -440 -277 -124 -77 -292 -183 -373 -235 -82 -51 -155 -91
-162 -88 -7 2 -19 16 -27 30 -7 14 -56 94 -109 178 -53 84 -111 181 -128 216
-52 104 -112 278 -127 372 -2 14 -6 34 -9 45 -2 11 -7 56 -11 100 -40 442 110
865 416 1175 169 172 322 272 544 355 105 39 239 71 334 81 31 4 58 8 60 9 6
5 258 -3 312 -10z m-4960 -1554 c151 -102 400 -270 555 -374 154 -103 364
-245 467 -315 104 -70 197 -132 208 -138 11 -6 28 -18 38 -27 10 -10 23 -17
29 -17 6 0 13 -4 15 -8 2 -5 86 -64 188 -132 102 -68 246 -165 320 -215 187
-127 754 -508 1060 -714 140 -93 260 -174 265 -179 6 -4 200 -136 433 -292
232 -156 422 -286 422 -289 -1 -12 -228 -172 -305 -216 -11 -7 -38 -22 -60
-35 -325 -188 -731 -314 -1115 -347 -153 -13 -439 -7 -580 13 -695 98 -1291
428 -1739 964 -69 82 -216 293 -262 375 -137 247 -245 527 -295 765 -3 14 -9
43 -14 65 -5 22 -12 63 -16 90 -3 28 -8 59 -10 70 -26 136 -25 621 1 725 2 8
6 35 9 60 4 25 9 59 11 75 8 44 66 279 72 288 6 10 -15 23 303 -192z m5994
-493 c27 -142 32 -166 40 -223 55 -365 55 -762 1 -1160 -39 -276 -151 -680
-257 -925 -10 -25 -23 -54 -28 -65 -35 -82 -139 -290 -186 -371 -448 -782
-1142 -1385 -1969 -1712 -173 -68 -444 -153 -563 -177 -9 -1 -53 -11 -97 -20
-44 -9 -91 -18 -105 -20 -28 -4 -91 -14 -130 -20 -14 -3 -47 -7 -75 -10 -27
-3 -66 -7 -85 -10 -65 -7 -294 -18 -400 -18 -109 -1 -360 11 -395 19 -11 2
-45 6 -75 9 -30 2 -68 7 -85 10 -16 3 -46 8 -65 11 -19 3 -48 8 -65 11 -151
23 -552 131 -660 178 -16 7 -46 18 -65 25 -19 7 -44 16 -55 21 -11 4 -63 27
-115 49 -284 123 -664 357 -889 547 l-34 29 444 279 c244 153 491 308 549 345
182 116 150 109 270 55 376 -169 723 -260 1115 -293 166 -14 529 -7 678 13 20
3 52 7 70 9 261 35 620 136 842 236 251 114 364 176 540 294 66 44 125 84 130
88 188 150 251 205 360 313 131 129 340 352 346 369 5 10 1 13 -1006 690 -121
82 -226 154 -233 160 -10 10 127 99 640 422 358 225 857 538 1107 696 251 158
461 287 466 288 6 0 23 -64 39 -142z"/>
</g>
</svg>
