<?xml version="1.0" standalone="no"?>
<!DOCTYPE svg PUBLIC "-//W3C//DTD SVG 20010904//EN"
 "http://www.w3.org/TR/2001/REC-SVG-20010904/DTD/svg10.dtd">
<svg version="1.0" xmlns="http://www.w3.org/2000/svg"
 width="700.000000pt" height="700.000000pt" viewBox="0 0 700.000000 700.000000"
 preserveAspectRatio="xMidYMid meet">
<metadata>
Created by potrace 1.11, written by Peter Selinger 2001-2013
</metadata>
<g transform="translate(0.000000,700.000000) scale(0.100000,-0.100000)"
fill="#000000" stroke="none">
<path d="M6135 4926 c-71 -18 -118 -45 -189 -107 -136 -119 -265 -333 -349
-579 -34 -98 -78 -240 -83 -266 -1 -7 -10 -45 -19 -85 -16 -72 -19 -85 -31
-159 -11 -74 -5 -70 -120 -70 -135 0 -167 -13 -195 -76 -17 -36 -20 -62 -17
-115 6 -108 50 -139 198 -139 l88 0 -4 -32 c-11 -109 -3 -486 12 -509 5 -8
-171 -189 -221 -226 -38 -29 -98 -63 -110 -63 -3 0 -5 30 -5 68 0 127 -37 213
-171 397 -149 205 -159 224 -163 292 -4 45 18 132 46 187 34 66 58 147 52 171
-11 46 -117 63 -241 40 -106 -20 -139 -57 -220 -250 -61 -146 -211 -433 -277
-530 -33 -49 -63 -92 -67 -95 -3 -3 -32 -41 -64 -84 -86 -115 -158 -182 -222
-206 -49 -18 -57 -19 -82 -5 -41 21 -54 61 -47 145 12 134 30 263 51 360 3 14
7 36 9 50 2 14 12 66 21 115 19 101 21 110 30 213 6 59 4 77 -10 98 -32 49
-114 66 -237 49 -42 -6 -48 -4 -48 12 0 26 -35 80 -62 94 -49 27 -235 2 -344
-47 -132 -58 -263 -167 -368 -306 -34 -45 -106 -164 -106 -176 0 -4 -6 -19
-14 -33 -16 -32 -54 -144 -59 -179 -3 -14 -8 -45 -13 -70 -7 -41 -9 -67 -13
-141 -1 -24 -9 -28 -118 -62 -110 -34 -164 -48 -238 -61 -16 -3 -40 -8 -52
-10 -98 -20 -359 -27 -466 -13 -386 52 -614 277 -663 657 -9 72 -5 278 6 360
46 321 158 570 329 733 161 152 300 212 491 212 108 0 117 -2 183 -34 55 -26
91 -74 113 -148 15 -50 17 -161 3 -223 -17 -76 -21 -169 -9 -205 36 -108 236
-127 331 -32 35 34 81 130 94 192 5 22 10 47 12 55 10 45 3 241 -11 291 -71
264 -243 413 -537 463 -40 7 -268 7 -319 1 -174 -23 -367 -97 -514 -197 -262
-178 -467 -463 -575 -800 -64 -202 -84 -338 -84 -573 1 -146 5 -198 22 -276
48 -217 137 -386 275 -525 145 -145 303 -229 556 -294 104 -27 217 -41 352
-43 112 -1 305 10 318 18 3 2 33 6 65 10 33 4 107 17 165 30 132 29 114 24
240 65 l108 35 56 -52 c32 -29 74 -60 94 -69 120 -53 249 -51 367 5 74 35 130
83 189 162 l45 60 27 -52 c61 -122 185 -209 298 -210 61 -1 148 22 204 52 179
100 446 405 581 666 l33 62 26 -32 c15 -17 33 -38 39 -45 64 -67 138 -217 149
-300 l6 -44 -73 8 c-145 14 -198 7 -259 -31 -54 -34 -83 -86 -86 -155 -10
-217 292 -328 556 -206 19 9 46 25 60 36 15 12 48 21 84 25 227 21 386 95 521
242 31 33 45 41 45 24 0 -22 71 -129 112 -169 67 -67 163 -117 248 -129 41 -6
175 -5 206 1 177 36 324 140 359 256 20 63 18 135 -4 178 -35 68 -62 69 -161
1 -41 -28 -95 -60 -120 -71 -88 -38 -191 -27 -252 29 -39 37 -76 128 -83 208
-4 38 -9 78 -12 90 -6 23 -11 463 -6 485 3 13 40 15 246 16 297 1 380 16 453
81 50 44 74 156 45 211 -17 32 -55 38 -252 37 -98 0 -179 1 -179 4 0 2 29 33
65 69 131 130 236 295 288 452 40 121 51 190 51 340 -1 114 -10 163 -48 252
-53 125 -184 181 -331 144z m25 -296 c30 -16 49 -97 45 -194 -9 -225 -116
-462 -290 -643 -66 -68 -75 -75 -75 -53 0 66 74 432 115 565 50 166 127 318
165 329 8 2 16 4 18 5 2 0 12 -4 22 -9z m-2810 -1299 c0 -5 -9 -53 -21 -107
-11 -55 -23 -110 -25 -124 -3 -14 -10 -45 -15 -70 -6 -25 -13 -54 -15 -65 -6
-27 -24 -115 -30 -145 -37 -195 -118 -334 -209 -359 -70 -19 -126 7 -160 75
-41 84 -13 309 59 468 75 165 180 269 321 320 46 17 95 20 95 7z"/>
</g>
</svg>
