<svg xmlns="http://www.w3.org/2000/svg" viewBox="0 0 131.72 62.1"><defs><style>.cls-1{fill:#231f20;}</style></defs><title>cast-fontlogo-black</title><g id="Layer_2" data-name="Layer 2"><g id="Layer_1-2" data-name="Layer 1"><path class="cls-1" d="M123.92,34.64q7.8,0,7.8-4.76a2.57,2.57,0,0,0-.48-1.8,2.19,2.19,0,0,0-1.59-.48h-7.73q9-7.94,9-18.63a11.62,11.62,0,0,0-1.65-6.42A5.18,5.18,0,0,0,124.68,0q-3.93,0-7.35,3.73a31.41,31.41,0,0,0-5.83,10,67.1,67.1,0,0,0-3.58,13.87H104q-3.11,0-3.1,3.86a3.43,3.43,0,0,0,.72,2.42,3.86,3.86,0,0,0,2.8.76h2.69q-.21,3.11-.21,6.14a40.88,40.88,0,0,0,.39,5.82c-2.77,3.3-5.2,5.38-7.29,6.19.09-.83.14-1.48.14-1.94A9,9,0,0,0,99,46.4a43.44,43.44,0,0,0-3.35-4.93,25.34,25.34,0,0,1-2.24-3.11,4.57,4.57,0,0,1-.72-2.27,9.78,9.78,0,0,1,1.24-4.21,10.64,10.64,0,0,0,.76-1.8,5.08,5.08,0,0,0,.27-1.31,1.15,1.15,0,0,0-.76-1.1,7.18,7.18,0,0,0-2.69-.35c-2.76,0-4.57,1-5.45,3q-1.52,3.59-3.1,6.93t-2.76,5.35A88.51,88.51,0,0,1,74.76,50c-.49.51-.94,1-1.34,1.32A5.24,5.24,0,0,1,70.24,53a1.64,1.64,0,0,1-1.34-.62,2.46,2.46,0,0,1-.52-1.66,66.91,66.91,0,0,1,1.59-11,51.69,51.69,0,0,0,1-6.9c0-1.61-1.13-2.42-3.38-2.42a15.77,15.77,0,0,0-3,.28,4.87,4.87,0,0,0-.86-2.11,2.67,2.67,0,0,0-2-.58,15.34,15.34,0,0,0-9,3,21.83,21.83,0,0,0-6.8,7.93,22.61,22.61,0,0,0-2.55,10.43c-2.22.76-4.52,1.53-5.83,1.85a37.51,37.51,0,0,1-9.07,1.14q-9,0-13.66-4.52T10.14,35A33.45,33.45,0,0,1,12.7,21.29a20.75,20.75,0,0,1,6.69-8.73,14.69,14.69,0,0,1,8.69-3q6.69,0,6.7,6.28a17.53,17.53,0,0,1-.42,3.31,17.06,17.06,0,0,0-.27,2.28,3.17,3.17,0,0,0,1.1,2.62,5.06,5.06,0,0,0,7.28-1.65A13.43,13.43,0,0,0,44,15.66,13.6,13.6,0,0,0,40.09,5.55Q36.22,1.73,28.77,1.73A25.9,25.9,0,0,0,14.21,6,29.67,29.67,0,0,0,3.83,18.22,40.65,40.65,0,0,0,0,36.23,24.88,24.88,0,0,0,3.24,49.06a21.6,21.6,0,0,0,9.32,8.52,31.9,31.9,0,0,0,14.28,3,53.76,53.76,0,0,0,10-1,47,47,0,0,0,8.68-2.53l.32.43a8.4,8.4,0,0,0,6.84,3.1q5.45,0,9-5.79A9.46,9.46,0,0,0,64.62,59a6.46,6.46,0,0,0,4.17,1.55,10.2,10.2,0,0,0,6.14-2.41,34.69,34.69,0,0,0,6-5.94,4.78,4.78,0,0,0,.6-.91c.24-.29.51-.58.74-.88a45.61,45.61,0,0,0,4.25-6.76c.64.73,1.33,1.6,2.07,2.58a17.33,17.33,0,0,1,1.82,3.07,8.87,8.87,0,0,1,.8,3.39c-.42,0-1-.13-1.83-.25a16,16,0,0,0-2.1-.17,5.25,5.25,0,0,0-3.87,1.31,4.27,4.27,0,0,0-1.31,3.11A4.84,4.84,0,0,0,84,60.44a8.05,8.05,0,0,0,5.48,1.66,9.78,9.78,0,0,0,6.56-2.35,18.58,18.58,0,0,0,7.76-1.69,18.7,18.7,0,0,0,5.38-4.41c.23.5.47,1,.73,1.45a10.19,10.19,0,0,0,9.59,5.48,12.47,12.47,0,0,0,8.14-3,5.16,5.16,0,0,0,1.55-2.08,6.43,6.43,0,0,0,.52-2.55,4.5,4.5,0,0,0-.52-2.24,1.52,1.52,0,0,0-1.34-.93,2.26,2.26,0,0,0-1.52.69,10.9,10.9,0,0,1-2.76,1.79A6.55,6.55,0,0,1,121,53a4.53,4.53,0,0,1-3.35-1.2,7.57,7.57,0,0,1-1.73-4,45.62,45.62,0,0,1-.51-7.76c0-1.29,0-3.08.14-5.38Zm-5.83-18.25a37.06,37.06,0,0,1,2.42-7.18c.85-1.72,1.62-2.59,2.31-2.59,1,0,1.52,1.36,1.52,4.08a19.17,19.17,0,0,1-2,8,23.68,23.68,0,0,1-6.1,7.9A94.44,94.44,0,0,1,118.09,16.39Zm-58,30.67a11.72,11.72,0,0,1-2,4.76,3.78,3.78,0,0,1-2.9,1.79,2.92,2.92,0,0,1-2.38-1A4.87,4.87,0,0,1,52,49.4a18.63,18.63,0,0,1,1.45-7.31,14.55,14.55,0,0,1,3.89-5.55,8.38,8.38,0,0,1,5.35-2.18Z"/></g></g></svg>