<?xml version="1.0" encoding="utf-8"?>
<!-- Generator: Adobe Illustrator 23.0.1, SVG Export Plug-In . SVG Version: 6.00 Build 0)  -->
<svg version="1.1" id="Layer_1" xmlns="http://www.w3.org/2000/svg" xmlns:xlink="http://www.w3.org/1999/xlink" x="0px" y="0px"
	 viewBox="0 0 178.6 163.6" style="enable-background:new 0 0 178.6 163.6;" xml:space="preserve">
<style type="text/css">
	.st0{fill:#FFFFFF;stroke:#FFFFFF;stroke-width:4;stroke-miterlimit:10;}
	.st1{stroke:#FFFFFF;stroke-width:4;stroke-miterlimit:10;}
	.st2{fill:#41DFD0;stroke:#FFFFFF;stroke-width:4;stroke-miterlimit:10;}
</style>
<title>cluster</title>
<polygon class="st0" points="168.2,25 73.4,25 73.4,97.8 85.2,97.8 85.2,105.7 154.6,105.7 154.6,97.8 168.2,97.8 "/>
<path class="st1" d="M121.3,2c11.6,0.1,23,1.7,33.8,6.4c3.2,1.4,6.2,3.2,8.9,5.4c8.5,6.9,8.4,16-0.3,22.8
	c-6.7,5.2-14.4,7.8-22.6,9.4c-16.8,3.3-33.6,2.8-49.9-2.7c-5.2-1.6-10-4.3-14-7.9c-7.4-7.1-7-15.3,1.2-21.6
	c6.7-5.3,14.6-7.9,22.8-9.6C107.8,2.6,114.5,1.9,121.3,2z"/>
<path class="st2" d="M170.2,82c-3.5,8.2-10.5,12-18.1,14.7c-10,3.5-20.4,5.3-31,5.4c-10.6-0.1-21-1.9-31-5.4
	c-7.7-2.6-14.7-6.5-18.2-14.7c0,4.7,0.1,9.4,0,14c-0.1,3.2,1,6.3,3.1,8.8c4.2,5.1,9.9,8,16,10.1c9.6,3.3,19.8,5,30,4.9h0.1
	c10.2,0.1,20.4-1.5,30-4.9c6.1-2.1,11.8-5,16-10.1c2.1-2.4,3.2-5.5,3.1-8.7C170.2,91.4,170.2,86.7,170.2,82z"/>
<path class="st2" d="M170.2,58.1c-3.5,8.2-10.5,12-18.1,14.7c-10,3.5-20.4,5.3-31,5.4c-10.6-0.1-21-1.9-31-5.4
	c-7.6-2.6-14.7-6.5-18.2-14.7c0,4.7,0.1,9.4,0,14.1c-0.1,3.2,1,6.3,3.1,8.7c4.2,5.1,9.9,8,16,10.1c9.6,3.3,19.8,5,30,4.9h0.1
	c10.2,0.1,20.4-1.5,30-4.9c6.1-2.1,11.8-5,16-10.1c2.1-2.4,3.2-5.5,3.1-8.7C170.2,67.5,170.2,62.8,170.2,58.1z"/>
<path class="st1" d="M170.2,34.2c-3.5,8.2-10.5,12-18.2,14.7c-10,3.5-20.5,5.3-31.1,5.4c-10.6-0.1-21-1.9-31-5.4
	c-7.6-2.6-14.7-6.5-18.2-14.7c0,4.7,0.1,9.4,0,14.1c0,3.2,1.1,6.3,3.2,8.7c4.2,5.1,9.9,8,16,10.1c9.6,3.3,19.8,5,30,4.9h0.1
	c10.2,0.1,20.4-1.5,30-4.9c6.1-2.1,11.8-5,16-10.1c2.1-2.4,3.2-5.5,3.1-8.7C170.2,43.5,170.2,38.9,170.2,34.2z"/>
<polygon class="st0" points="98.3,48.5 3.5,48.5 3.5,121.3 15.3,121.3 15.3,129.2 84.8,129.2 84.8,121.3 98.3,121.3 "/>
<g id="Layer_1-2-3">
	<path class="st1" d="M51.5,25.5c11.6,0.1,23,1.7,33.8,6.4c3.2,1.4,6.2,3.2,8.9,5.3c8.5,6.9,8.4,16-0.3,22.8
		c-6.7,5.2-14.4,7.8-22.6,9.4c-16.8,3.3-33.5,2.8-49.9-2.7c-5.2-1.6-10-4.3-14-7.9c-7.5-7.1-7-15.3,1.2-21.6
		c6.7-5.3,14.6-7.9,22.8-9.6C37.9,26.1,44.7,25.4,51.5,25.5z"/>
	<path class="st1" d="M100.4,105.5c-3.5,8.2-10.5,12-18.2,14.7c-10,3.5-20.4,5.3-31,5.4c-10.6-0.1-21-1.9-31-5.4
		c-7.6-2.6-14.7-6.5-18.2-14.7c0,4.7,0.1,9.4,0,14c0,3.2,1.1,6.3,3.2,8.7c4.2,5.1,9.9,8,16,10.1c9.6,3.3,19.8,5,30,4.9h0.1
		c10.2,0.1,20.4-1.5,30-4.9c6.1-2.1,11.8-5,16-10.1c2.1-2.4,3.2-5.5,3.2-8.7C100.3,114.9,100.4,110.2,100.4,105.5z"/>
	<path class="st1" d="M100.4,81.6c-3.5,8.2-10.5,12-18.2,14.7c-10,3.5-20.4,5.3-31,5.4c-10.6-0.1-21-1.9-31-5.4
		C12.6,93.6,5.5,89.8,2,81.6c0,4.7,0.1,9.4,0,14.1c0,3.2,1.1,6.3,3.2,8.7c4.2,5.1,9.9,8,16,10.1c9.6,3.3,19.8,5,30,4.9h0.1
		c10.2,0.1,20.4-1.5,30-4.9c6.1-2.1,11.8-5,16-10.1c2.1-2.4,3.2-5.5,3.2-8.7C100.3,91,100.4,86.3,100.4,81.6z"/>
	<path class="st1" d="M100.4,57.7c-3.5,8.2-10.5,12-18.2,14.7c-10,3.5-20.4,5.3-31,5.4c-10.6-0.1-21-1.9-31-5.4
		C12.6,69.7,5.5,65.8,2,57.7c0,4.7,0.1,9.4,0,14.1c0,3.2,1.1,6.3,3.2,8.7c4.2,5.1,9.9,8,16,10.1c9.6,3.3,19.8,5,30,4.9h0.1
		c10.2,0.1,20.4-1.5,30-4.9c6.1-2.1,11.8-5,16-10.1c2.1-2.4,3.2-5.5,3.2-8.7C100.3,67,100.4,62.4,100.4,57.7z"/>
</g>
<polygon class="st0" points="174.5,66.9 79.7,66.9 79.7,139.7 91.5,139.7 91.5,147.6 161,147.6 161,139.7 174.5,139.7 "/>
<g id="Layer_1-2-4">
	<path class="st1" d="M127.6,43.9c11.6,0.1,23,1.7,33.8,6.3c3.2,1.4,6.2,3.2,8.9,5.3c8.5,6.9,8.4,16.1-0.3,22.8
		c-6.7,5.2-14.4,7.8-22.6,9.4c-16.8,3.3-33.6,2.8-49.9-2.7c-5.2-1.6-10-4.3-14-7.9c-7.4-7.1-7-15.3,1.2-21.7
		c6.7-5.3,14.6-7.9,22.8-9.6C114.1,44.5,120.9,43.8,127.6,43.9z"/>
	<path class="st1" d="M176.6,124c-3.5,8.2-10.5,12-18.1,14.7c-20,7.2-42,7.2-62,0c-7.7-2.7-14.7-6.6-18.2-14.7c0,4.7,0.1,9.4,0,14
		c0,3.2,1.1,6.3,3.2,8.7c4.2,5.1,9.9,8,16,10.1c9.6,3.3,19.8,5,30,4.9h0.1c10.2,0.1,20.4-1.5,30-4.9c6.1-2.1,11.8-5,16-10.1
		c2.1-2.4,3.2-5.5,3.2-8.7C176.5,133.3,176.6,128.6,176.6,124z"/>
	<path class="st1" d="M176.6,100c-3.5,8.2-10.5,12-18.1,14.7c-20,7.2-42,7.2-62,0c-7.6-2.6-14.7-6.5-18.2-14.7c0,4.7,0.1,9.4,0,14.1
		c0,3.2,1.1,6.3,3.2,8.7c4.2,5.1,9.9,8,16,10.1c9.6,3.3,19.8,5,30,4.9h0.1c10.2,0.1,20.4-1.5,30-4.9c6.1-2.1,11.8-5,16-10.1
		c2.1-2.4,3.2-5.5,3.2-8.7C176.5,109.4,176.6,104.7,176.6,100z"/>
	<path class="st1" d="M176.6,76.1c-3.5,8.2-10.5,12-18.2,14.7c-10,3.5-20.4,5.3-31,5.4c-10.6-0.1-21-1.9-31-5.4
		c-7.6-2.6-14.7-6.5-18.2-14.7c0,4.7,0.1,9.4,0,14.1c0,3.2,1.1,6.3,3.2,8.7c4.2,5.1,9.9,8,16,10.1c9.6,3.3,19.8,5,30,4.9h0.1
		c10.2,0.1,20.4-1.5,30-4.9c6.1-2.1,11.8-5,16-10.1c2.1-2.4,3.2-5.5,3.2-8.7C176.5,85.4,176.6,80.8,176.6,76.1z"/>
</g>
</svg>
