<svg xmlns="http://www.w3.org/2000/svg" viewBox="0 0 178.63 163.64"><defs><style>.cls-1{fill:#fff;}.cls-1,.cls-2,.cls-3{stroke:#fff;stroke-miterlimit:10;stroke-width:4px;}.cls-2{fill:#41dfcf;}.cls-3{fill:#41dfd0;}</style></defs><title>cluster</title><g id="Layer_2" data-name="Layer 2"><g id="Layer_1-2" data-name="Layer 1"><polygon class="cls-1" points="168.19 24.99 73.39 24.99 73.39 97.81 85.21 97.81 85.21 105.69 154.65 105.69 154.65 97.81 168.19 97.81 168.19 24.99"/><g id="Layer_1-2-2" data-name="Layer 1-2"><path class="cls-2" d="M121.33,2c11.64.12,23,1.68,33.78,6.35a38.15,38.15,0,0,1,8.9,5.35c8.51,6.92,8.41,16.05-.33,22.78-6.68,5.17-14.43,7.82-22.58,9.42-16.83,3.31-33.55,2.8-49.92-2.73a36.43,36.43,0,0,1-14-7.93c-7.44-7.11-7-15.26,1.18-21.65C85.08,8.32,92.92,5.73,101.12,4A92.75,92.75,0,0,1,121.33,2Z"/><path class="cls-3" d="M170.24,82c-3.5,8.16-10.53,12-18.15,14.66a95.5,95.5,0,0,1-31,5.38,95.63,95.63,0,0,1-31-5.38C82.43,94.07,75.4,90.2,71.87,82c0,4.68.06,9.37,0,14A12.9,12.9,0,0,0,75,104.76c4.21,5.11,9.9,8,16,10.1a89.11,89.11,0,0,0,30,4.87h.07a89.36,89.36,0,0,0,30-4.87c6.08-2.12,11.76-5,16-10.11a12.88,12.88,0,0,0,3.15-8.67C170.19,91.41,170.24,86.74,170.24,82Z"/><path class="cls-3" d="M170.24,58.1c-3.5,8.17-10.53,12-18.15,14.67a95.5,95.5,0,0,1-31,5.38,95.63,95.63,0,0,1-31-5.38c-7.62-2.63-14.65-6.5-18.18-14.67,0,4.69.06,9.38,0,14.06A12.9,12.9,0,0,0,75,80.83c4.21,5.11,9.9,8,16,10.1a89.1,89.1,0,0,0,30,4.86h.07a89.11,89.11,0,0,0,30-4.87c6.08-2.11,11.76-5,16-10.1a12.88,12.88,0,0,0,3.15-8.67C170.19,67.48,170.24,62.81,170.24,58.1Z"/><path class="cls-3" d="M170.24,34.17c-3.5,8.16-10.53,12-18.16,14.67A95.45,95.45,0,0,1,121,54.22a95.61,95.61,0,0,1-31-5.38c-7.62-2.63-14.65-6.51-18.18-14.67,0,4.7.08,9.37,0,14.06A12.87,12.87,0,0,0,75,56.89c4.21,5.11,9.9,8,16,10.11a89.1,89.1,0,0,0,30,4.86h.07a89.11,89.11,0,0,0,30-4.87c6.08-2.11,11.76-5,16-10.1a12.88,12.88,0,0,0,3.15-8.67C170.19,43.54,170.24,38.87,170.24,34.17Z"/></g><polygon class="cls-1" points="98.32 48.49 3.52 48.49 3.52 121.31 15.34 121.31 15.34 129.19 84.78 129.19 84.78 121.31 98.32 121.31 98.32 48.49"/><g id="Layer_1-2-3" data-name="Layer 1-2"><path class="cls-2" d="M51.46,25.51c11.64.12,23,1.68,33.78,6.35a38.15,38.15,0,0,1,8.9,5.35c8.51,6.92,8.41,16-.34,22.78-6.68,5.17-14.43,7.82-22.58,9.42-16.83,3.31-33.54,2.8-49.92-2.73a36.46,36.46,0,0,1-14-7.93C-.15,51.64.34,43.49,8.47,37.1c6.73-5.28,14.58-7.87,22.78-9.6A92.69,92.69,0,0,1,51.46,25.51Z"/><path class="cls-3" d="M100.36,105.54c-3.5,8.16-10.53,12-18.15,14.66a95.44,95.44,0,0,1-31,5.38,95.36,95.36,0,0,1-31-5.38C12.56,117.57,5.53,113.7,2,105.54c0,4.68.06,9.37,0,14a12.94,12.94,0,0,0,3.16,8.67c4.22,5.11,9.91,8,16,10.1a89.21,89.21,0,0,0,30,4.87h.07a89.36,89.36,0,0,0,30-4.87c6.07-2.12,11.76-5,16-10.11a12.87,12.87,0,0,0,3.15-8.66C100.32,114.91,100.36,110.24,100.36,105.54Z"/><path class="cls-3" d="M100.36,81.6c-3.5,8.17-10.53,12-18.15,14.67a95.44,95.44,0,0,1-31,5.38,95.63,95.63,0,0,1-31-5.38C12.56,93.64,5.53,89.77,2,81.6c0,4.69.06,9.38,0,14.06a12.94,12.94,0,0,0,3.16,8.67c4.22,5.11,9.91,8,16,10.1a89.2,89.2,0,0,0,30,4.86h.07a88.86,88.86,0,0,0,30-4.87c6.07-2.11,11.76-5,16-10.1a12.88,12.88,0,0,0,3.15-8.67C100.32,91,100.36,86.31,100.36,81.6Z"/><path class="cls-3" d="M100.36,57.67c-3.5,8.17-10.53,12-18.15,14.67a95.45,95.45,0,0,1-31,5.38,95.61,95.61,0,0,1-31-5.38C12.56,69.71,5.53,65.84,2,57.67c0,4.7.08,9.37,0,14.06a12.91,12.91,0,0,0,3.16,8.66c4.22,5.11,9.91,8,16,10.11a89.2,89.2,0,0,0,30,4.86h.07a89.11,89.11,0,0,0,30-4.87c6.07-2.11,11.76-5,16-10.1a12.88,12.88,0,0,0,3.15-8.67C100.32,67,100.36,62.37,100.36,57.67Z"/></g><polygon class="cls-1" points="174.5 66.9 79.7 66.9 79.7 139.72 91.52 139.72 91.52 147.59 160.96 147.59 160.96 139.72 174.5 139.72 174.5 66.9"/><g id="Layer_1-2-4" data-name="Layer 1-2"><path class="cls-2" d="M127.64,43.92c11.64.12,23,1.68,33.78,6.35a37.94,37.94,0,0,1,8.9,5.35c8.51,6.92,8.41,16.05-.33,22.78-6.68,5.17-14.43,7.82-22.58,9.42-16.83,3.31-33.55,2.8-49.92-2.73a36.43,36.43,0,0,1-14-7.93c-7.44-7.11-7-15.26,1.18-21.65,6.74-5.28,14.58-7.87,22.78-9.6A92.75,92.75,0,0,1,127.64,43.92Z"/><path class="cls-3" d="M176.55,124c-3.5,8.16-10.53,12-18.15,14.66a92.12,92.12,0,0,1-62,0C88.74,136,81.71,132.11,78.18,124c0,4.68.06,9.37,0,14a12.9,12.9,0,0,0,3.17,8.67c4.22,5.11,9.9,8,16,10.1a89.11,89.11,0,0,0,30,4.87h.07a89.08,89.08,0,0,0,30-4.88c6.08-2.11,11.76-5,16-10.1a12.94,12.94,0,0,0,3.16-8.67C176.5,133.32,176.55,128.65,176.55,124Z"/><path class="cls-3" d="M176.55,100c-3.5,8.17-10.53,12-18.15,14.67a92.12,92.12,0,0,1-62,0c-7.62-2.63-14.65-6.5-18.18-14.67,0,4.69.06,9.38,0,14.06a12.9,12.9,0,0,0,3.17,8.67c4.22,5.11,9.9,8,16,10.1a89.1,89.1,0,0,0,30,4.86h.07a89.07,89.07,0,0,0,30-4.87c6.08-2.11,11.76-5,16-10.1a12.94,12.94,0,0,0,3.16-8.67C176.5,109.39,176.55,104.72,176.55,100Z"/><path class="cls-3" d="M176.55,76.08c-3.5,8.16-10.53,12-18.16,14.66a95.19,95.19,0,0,1-31,5.39,95.36,95.36,0,0,1-31-5.39c-7.62-2.62-14.65-6.5-18.18-14.66,0,4.7.08,9.37,0,14.06a12.87,12.87,0,0,0,3.17,8.66c4.22,5.11,9.9,8,16,10.11a89.1,89.1,0,0,0,30,4.86h.07a89.07,89.07,0,0,0,30-4.87c6.08-2.11,11.76-5,16-10.1a12.94,12.94,0,0,0,3.16-8.67C176.5,85.45,176.55,80.78,176.55,76.08Z"/></g></g></g></svg>