<?xml version="1.0" encoding="utf-8"?>
<!-- Generator: Adobe Illustrator 22.0.0, SVG Export Plug-In . SVG Version: 6.00 Build 0)  -->
<svg version="1.1" id="Layer_1" xmlns="http://www.w3.org/2000/svg" xmlns:xlink="http://www.w3.org/1999/xlink" x="0px" y="0px"
	 viewBox="0 0 432.9 383" style="enable-background:new 0 0 432.9 383;" xml:space="preserve">
<style type="text/css">
	.st0{fill:#FFFFFF;}
	.st1{fill:#ACF39D;}
	.st2{fill:#68DDE0;}
	.st3{fill:#FAD467;}
</style>
<polygon class="st0" points="212.6,87.3 221.9,142.2 238.1,165.2 314.9,123.3 384.7,75 329.9,21.5 266.5,21.5 221.9,60.4 "/>
<polygon class="st0" points="32,304.9 364.8,97.3 357.8,239 260.5,350.3 96.9,363.3 "/>
<polyline class="st0" points="45.6,87.8 45.2,91.3 37,161.7 56.4,210.1 114.8,265 195.2,276.4 274,233.5 45.6,75.9 "/>
<title>logo-transparent-color</title>
<path class="st1" d="M371.9,92.5L365.6,75l-164,103l27.2,18.3l120.4-75.6c3.7,15,5.6,30.3,5.6,45.8C354.6,269.6,271,353,167.9,353
	h-0.3c-43.6,0.1-85.9-15.3-119.3-43.3l70.3-44.2c-10.5-4.4-20.4-10.1-29.5-16.9L0,304.7L13,318c40.6,41.7,96.3,65.1,154.5,65.1h0.4
	c119.8-0.1,216.9-97.3,216.8-217.2C384.7,140.9,380.3,116.1,371.9,92.5L371.9,92.5z"/>
<path class="st2" d="M174.5,291.9c-80.2,0-149.3-60.7-158-142.2c-3-28.8,1.9-57.9,14.2-84.1l7.4-15.8L303,228.2l-11.9,12.9
	C261,273.5,218.7,291.9,174.5,291.9L174.5,291.9z M51.4,94.9c-21,68.1,17.2,140.3,85.3,161.3c41.2,12.7,86.1,4,119.5-23.3L51.4,94.9
	z"/>
<path class="st2" d="M174.5,291.9c-80.2,0-149.3-60.7-158-142.2c-3-28.8,1.9-57.9,14.2-84.1l7.4-15.8L303,228.2l-11.9,12.9
	C261,273.5,218.7,291.9,174.5,291.9L174.5,291.9z M51.4,94.9c-21,68.1,17.2,140.3,85.3,161.3c41.2,12.7,86.1,4,119.5-23.3L51.4,94.9
	z"/>
<path class="st2" d="M232.5,194l-25.6-40.8c-28.8-47.4-13.7-109.2,33.7-138C287.2-13.1,348,1,377.4,47l25.2,40.1L232.5,194z
	 M233.1,138.5l8.9,14.1l119.3-75L352,62.9c-20.7-32.9-64.2-42.8-97.1-22.1S212,105,232.7,137.9L233.1,138.5z"/>
<path class="st3" d="M346.4,86.9c10.6,22.7,37.7,32.5,60.4,21.8c22.7-10.6,32.5-37.7,21.8-60.4c-1.6-3.4-3.6-6.6-6-9.5L346.4,86.9z"
	/>
</svg>
