<svg xmlns="http://www.w3.org/2000/svg" viewBox="0 0 308.13 219"><defs><style>.cls-1,.cls-3,.cls-7{fill:#fff;}.cls-2{fill:none;}.cls-2,.cls-3{stroke:#000;stroke-miterlimit:10;}.cls-4{font-size:14.82px;}.cls-4,.cls-7{font-family:Futura-Medium, Futura;font-weight:500;}.cls-5{letter-spacing:-0.03em;}.cls-6{fill:#f7931e;}.cls-7{font-size:24px;}.cls-8{letter-spacing:-0.06em;}.cls-9{letter-spacing:0.02em;}</style></defs><title>post</title><g id="Layer_2" data-name="Layer 2"><g id="Layer_1-2" data-name="Layer 1"><rect class="cls-1" x="18.57" y="0.5" width="271" height="218" rx="19.5"/><path d="M270.07,1a19,19,0,0,1,19,19V199a19,19,0,0,1-19,19h-232a19,19,0,0,1-19-19V20a19,19,0,0,1,19-19h232m0-1h-232a20.06,20.06,0,0,0-20,20V199a20.06,20.06,0,0,0,20,20h232a20.06,20.06,0,0,0,20-20V20a20.06,20.06,0,0,0-20-20Z"/><line class="cls-2" x1="18.85" y1="22.5" x2="290.35" y2="22.5"/><line class="cls-1" x1="18.85" y1="22.5" x2="290.35" y2="22.5"/><rect class="cls-3" x="113.22" y="167.62" width="85.26" height="33.02" rx="16.51"/><text class="cls-4" transform="translate(142.64 188.48)"><tspan class="cls-5">P</tspan><tspan x="7.58" y="0">ost</tspan></text><rect class="cls-6" y="43.99" width="308.13" height="102.15" rx="20"/><text class="cls-7" transform="translate(82.92 101.52)">Hello <tspan class="cls-8" x="64.66" y="0">W</tspan><tspan x="88.63" y="0">o</tspan><tspan class="cls-9" x="103.05" y="0">r</tspan><tspan x="112.39" y="0">ld!</tspan></text><circle cx="36.03" cy="11.57" r="3.24"/><circle cx="44.49" cy="11.57" r="3.24"/><circle cx="52.95" cy="11.57" r="3.24"/></g></g></svg>